<svg xmlns="http://www.w3.org/2000/svg" version="1.1" xmlns:xlink="http://www.w3.org/1999/xlink" viewBox="0 0 200 200"><rect width="200" height="200" fill="url('#gradient')"></rect><defs><linearGradient id="gradient" gradientTransform="rotate(51 0.5 0.5)"><stop offset="0%" stop-color="#ffffff"></stop><stop offset="100%" stop-color="#ffffff"></stop></linearGradient></defs><g><g fill="#ffffff" transform="matrix(9.157723577235773,0,0,9.157723577235773,21.93001801851318,168.72859530332613)" stroke="#000000" stroke-width="0.8"><path d="M4.95 0L1.65 0L1.65-8.28L0.12-8.28L0.12-10.57L1.65-10.57L1.65-11.41Q1.65-13.21 2.71-14.21Q3.78-15.21 5.70-15.21L5.70-15.21Q6.41-15.21 7.25-15L7.25-15L7.26-12.58Q6.95-12.67 6.45-12.67L6.45-12.67Q4.95-12.67 4.95-11.38L4.95-11.38L4.95-10.57L7.01-10.57L7.01-8.28L4.95-8.28L4.95 0ZM12.40-2.34L12.40-2.34Q13.10-2.34 13.48-2.72Q13.86-3.10 13.85-3.77L13.85-3.77L16.93-3.77Q16.93-2.03 15.69-0.92Q14.44 0.20 12.48 0.20L12.48 0.20Q10.18 0.20 8.85-1.25Q7.52-2.70 7.52-5.25L7.52-5.25L7.52-5.39Q7.52-6.99 8.11-8.22Q8.70-9.44 9.81-10.10Q10.93-10.76 12.45-10.76L12.45-10.76Q14.51-10.76 15.72-9.62Q16.93-8.48 16.93-6.52L16.93-6.52L13.85-6.52Q13.85-7.34 13.45-7.78Q13.05-8.22 12.37-8.22L12.37-8.22Q11.09-8.22 10.88-6.59L10.88-6.59Q10.81-6.07 10.81-5.17L10.81-5.17Q10.81-3.57 11.19-2.96Q11.57-2.34 12.40-2.34Z"></path></g></g></svg>